<?xml version="1.0" encoding="utf-8"?>
<!-- Generator: Adobe Illustrator 16.0.0, SVG Export Plug-In . SVG Version: 6.00 Build 0)  -->
<!DOCTYPE svg PUBLIC "-//W3C//DTD SVG 1.1//EN" "http://www.w3.org/Graphics/SVG/1.1/DTD/svg11.dtd">
<svg version="1.1" id="Layer_1" xmlns="http://www.w3.org/2000/svg" xmlns:xlink="http://www.w3.org/1999/xlink" x="0px" y="0px"
	 width="960px" height="560px" viewBox="0 0 960 560" enable-background="new 0 0 960 560" xml:space="preserve">
<g>
	<g>
		<g>
			<path fill-rule="evenodd" clip-rule="evenodd" fill="#303030" d="M435.591,317.819c-0.896-4.92-1.943-9.063-2.33-13.268
				c-0.282-3.104-1.67-4.542-4.412-5.724c-5.273-2.271-10.602-4.597-15.455-7.629c-5.413-3.386-9.833-8.035-13.453-13.931
				c14.681-10.173,30.359-17.474,47.42-21.877c17.041-4.395,34.346-5.521,52.585-3.734c-1.708-5.946-3.201-11.157-4.752-16.561
				c-37.333-2.279-71.157,7.242-102.092,27.386c-0.429-0.563-0.656-0.778-0.774-1.039c-0.21-0.454-0.399-0.934-0.517-1.426
				c-4.218-17.675-1.606-34.077,10.417-48.018c14.82-17.184,33.513-28.299,55.76-33.249c1.947-0.437,3.873-0.967,6.136-1.535
				c-0.824-5.341-1.581-10.278-2.389-15.519c-31.095,5.77-56.155,20.636-75.841,44.565c-11.124-10.736-28.736-7.04-33.442,9.164
				c1.569,16.439,6.325,21.532,21.515,22.802c-1.497,19.013,3.613,36.154,15.442,51.11
				C401.169,304.215,416.549,313.374,435.591,317.819z M362.597,297.528c6.477,31.137,19.808,57.354,45.306,76.53
				c-5.72,7.608-6.847,15.544-1.561,23.56c4.071,6.169,10.177,9.104,17.55,8.087c11.493-1.586,16.473-9.201,17.128-20.346
				c18.979,0.761,35.86-4.349,50.491-16.049c14.563-11.645,23.5-26.658,26.734-45.549c-6.086,1.316-11.498,2.485-16.671,3.6
				c-7.768,17.878-15.74,28.689-23.559,31.743c-20.182-29.96-29.114-62.847-25.296-99.739c-5.888,1.691-11.17,3.209-16.654,4.786
				c-2.351,37.452,7.448,71.272,27.655,102.422c-1.329,0.471-2.065,0.815-2.843,0.997c-17.692,4.201-34.085,1.522-47.951-10.606
				c-17.39-15.216-28.563-34.346-33.521-57.009c-0.294-1.333-0.837-2.612-1.447-4.492
				C372.896,296.145,368.135,296.784,362.597,297.528z M560.762,281.041c-5.202,3.124-9.854,6.167-14.728,8.8
				c-26.549,14.312-54.91,19.854-85.661,16.767c1.682,5.93,3.184,11.221,4.702,16.582c37.281,2.166,71.245-6.884,102.42-27.634
				c0.529,1.564,1.03,2.658,1.27,3.798c3.92,18.475,0.563,35.204-12.638,49.162c-15.257,16.127-33.727,26.813-55.562,31.456
				c-1.157,0.248-2.25,0.757-3.588,1.224c-0.597,5.27,0.884,10.089,1.721,15.506c31.591-6.611,58.371-20.3,77.515-46.949
				c7.89,5.45,15.947,6.278,23.786,0.462c6.271-4.659,8.747-11.304,7.002-18.87c-2.389-10.37-9.748-14.896-20.422-15.127
				c-0.046-18.415-5.265-34.975-16.948-49.151c-11.632-14.113-26.41-22.882-44.792-26.006c1.132,5.909,2.153,11.262,3.234,16.91
				C540.983,262.083,552.267,268.807,560.762,281.041z M597.53,260.792c-5.102-29.455-19.042-53.237-40.793-72.864
				c7.195-7.229,9.294-15.434,4.345-24.429c-3.621-6.586-9.766-9.971-17.247-9.324c-11.304,0.98-16.923,8.083-18.163,19.345
				c-19.934-2.7-37.959,1.695-53.931,13.567c-15.91,11.826-25.628,27.646-30.208,47.429c4.449-0.791,8.104-1.665,11.805-2.035
				c3.772-0.383,5.984-1.947,7.254-5.698c3.533-10.442,9.681-19.147,18.441-25.918c0.925-0.715,1.964-1.283,3.142-2.04
				c19.277,28.286,28.197,59.112,26.128,93.498c5.74-1.885,10.893-3.566,16.175-5.295c0.828-34.891-8.621-66.402-27.979-95.374
				c8.613-2.834,16.894-3.339,25.33-2.12c14.463,2.095,25.468,9.942,34.725,20.771c12.301,14.395,20.93,30.607,24.631,49.279
				c0.399,2.027,1.493,3.142,3.558,2.902C588.846,262.007,592.942,261.41,597.53,260.792z"/>
		</g>
		<g>
			<path fill-rule="evenodd" clip-rule="evenodd" fill="#f8b133" d="M435.591,317.819c-19.042-4.445-34.422-13.604-46.18-28.479
				c-11.83-14.956-16.939-32.098-15.442-51.11c-15.19-1.271-19.946-6.363-21.515-22.802c4.706-16.204,22.318-19.9,33.442-9.164
				c19.686-23.929,44.746-38.795,75.841-44.565c0.808,5.24,1.564,10.177,2.389,15.519c-2.263,0.567-4.188,1.098-6.136,1.535
				c-22.247,4.95-40.94,16.065-55.76,33.249c-12.023,13.941-14.635,30.342-10.417,48.018c0.118,0.492,0.307,0.972,0.517,1.426
				c0.118,0.261,0.345,0.475,0.774,1.039c30.936-20.144,64.76-29.665,102.092-27.386c1.551,5.404,3.044,10.615,4.752,16.561
				c-18.239-1.787-35.545-0.66-52.585,3.734c-17.062,4.403-32.739,11.704-47.42,21.877c3.621,5.896,8.041,10.545,13.453,13.931
				c4.853,3.032,10.182,5.357,15.455,7.629c2.742,1.182,4.13,2.619,4.412,5.724C433.648,308.757,434.695,312.899,435.591,317.819z"
				/>
		</g>
		<g>
			<path fill-rule="evenodd" clip-rule="evenodd" fill="#018d36" d="M362.597,297.528c5.539-0.744,10.299-1.384,15.363-2.065
				c0.61,1.88,1.152,3.159,1.447,4.492c4.958,22.663,16.132,41.793,33.521,57.009c13.865,12.129,30.258,14.808,47.951,10.606
				c0.778-0.182,1.514-0.526,2.843-0.997c-20.208-31.149-30.006-64.97-27.655-102.422c5.484-1.577,10.766-3.095,16.654-4.786
				c-3.818,36.892,5.114,69.779,25.296,99.739c7.818-3.054,15.791-13.865,23.559-31.743c5.173-1.114,10.585-2.283,16.671-3.6
				c-3.234,18.891-12.171,33.904-26.734,45.549c-14.631,11.7-31.512,16.81-50.491,16.049c-0.656,11.145-5.635,18.76-17.128,20.346
				c-7.373,1.018-13.479-1.918-17.55-8.087c-5.286-8.016-4.159-15.951,1.561-23.56C382.404,354.882,369.073,328.665,362.597,297.528
				z"/>
		</g>
		<g>
			<path fill-rule="evenodd" clip-rule="evenodd" fill="#f8b133" d="M560.762,281.041c-8.495-12.234-19.778-18.958-32.688-23.071
				c-1.081-5.648-2.103-11.001-3.234-16.91c18.382,3.125,33.16,11.893,44.792,26.006c11.684,14.176,16.902,30.736,16.948,49.151
				c10.674,0.231,18.033,4.757,20.422,15.127c1.745,7.566-0.731,14.211-7.002,18.87c-7.839,5.816-15.896,4.988-23.786-0.462
				c-19.144,26.649-45.924,40.338-77.515,46.949c-0.837-5.417-2.317-10.236-1.721-15.506c1.338-0.467,2.431-0.976,3.588-1.224
				c21.835-4.643,40.305-15.329,55.562-31.456c13.201-13.958,16.558-30.688,12.638-49.162c-0.239-1.14-0.74-2.233-1.27-3.798
				c-31.175,20.75-65.139,29.8-102.42,27.634c-1.518-5.361-3.02-10.652-4.702-16.582c30.75,3.087,59.112-2.455,85.661-16.767
				C550.908,287.208,555.56,284.165,560.762,281.041z"/>
		</g>
		<g>
			<path fill-rule="evenodd" clip-rule="evenodd" fill="#018d36" d="M597.53,260.792c-4.588,0.618-8.685,1.215-12.789,1.695
				c-2.064,0.24-3.158-0.875-3.558-2.902c-3.701-18.672-12.33-34.884-24.631-49.279c-9.257-10.829-20.262-18.676-34.725-20.771
				c-8.437-1.22-16.717-0.715-25.33,2.12c19.358,28.971,28.808,60.483,27.979,95.374c-5.282,1.729-10.435,3.41-16.175,5.295
				c2.069-34.386-6.851-65.212-26.128-93.498c-1.178,0.757-2.216,1.325-3.142,2.04c-8.76,6.771-14.908,15.476-18.441,25.918
				c-1.27,3.751-3.482,5.315-7.254,5.698c-3.701,0.37-7.355,1.245-11.805,2.035c4.58-19.782,14.298-35.603,30.208-47.429
				c15.972-11.872,33.997-16.267,53.931-13.567c1.24-11.262,6.859-18.365,18.163-19.345c7.481-0.647,13.626,2.738,17.247,9.324
				c4.949,8.996,2.851,17.2-4.345,24.429C578.488,207.555,592.429,231.336,597.53,260.792z"/>
		</g>
	</g>
</g>
</svg>
