<?xml version="1.0" encoding="utf-8"?>
<!-- Generator: Adobe Illustrator 16.0.0, SVG Export Plug-In . SVG Version: 6.00 Build 0)  -->
<!DOCTYPE svg PUBLIC "-//W3C//DTD SVG 1.1//EN" "http://www.w3.org/Graphics/SVG/1.1/DTD/svg11.dtd">
<svg version="1.1" id="Layer_1" xmlns="http://www.w3.org/2000/svg" xmlns:xlink="http://www.w3.org/1999/xlink" x="0px" y="0px"
	 width="960px" height="560px" viewBox="0 0 960 560" enable-background="new 0 0 960 560" xml:space="preserve">
<g>
	<polygon fill="#303030" points="458.843,293.968 458.845,293.978 458.845,293.968 	"/>
	<path fill="#303030" d="M351,260.867c-2.535,0-3,1.512-3,2.414v28.781c0,0.9,0.465,2.412,3,2.412s3-1.512,3-2.412v-28.781
		C354,262.378,353.535,260.867,351,260.867z"/>
	<path fill="#303030" d="M364.819,263.281c-2.732,0-3.141,1.684-3.141,2.686c0,1.004,0.408,2.688,3.141,2.688
		c2.734,0,3.143-1.684,3.143-2.688C367.962,264.964,367.554,263.281,364.819,263.281z"/>
	<path fill="#303030" d="M364.5,270.886c-2.535,0-2.5,1.512-2.5,2.412v18.763c0,0.9-0.035,2.412,2.5,2.412s2.5-1.512,2.5-2.412
		v-18.763C367,272.398,367.035,270.886,364.5,270.886z"/>
	<path fill="#303030" d="M396.425,272h-8.789c-8.129,0-12.636,1.718-12.636,6.855v13.207c0,0.9,0.465,2.412,3,2.412s3-1.512,3-2.412
		v-13.207c0-1.994,2.313-1.855,6.453-1.855h9.108c4.171,0,6.438-0.139,6.438,1.855v13.207c0,0.9-0.035,2.412,2.5,2.412
		s2.5-1.512,2.5-2.412v-13.207C408,273.718,404.554,272,396.425,272z"/>
	<path fill="#303030" d="M445.977,270.886c-2.535,0-2.977,1.512-2.977,2.412v13.298c0,1.965-1.903,3.403-6.044,3.403h-8.653
		c-4.141,0-6.303-1.438-6.303-3.403v-13.298c0-0.9-0.465-2.412-3-2.412s-3,1.512-3,2.412v13.253c0,5.105,4.356,8.448,12.485,8.448
		h8.334c8.129,0,12.181-3.343,12.181-8.448v-13.253C449,272.398,448.553,270.886,445.977,270.886z"/>
	<path fill="#303030" d="M489.407,274.164c0.121-0.313,0.197-0.586,0.238-0.91c0-0.883-0.372-2.367-2.867-2.367
		c-0.424,0-0.812,0.064-1.152,0.191c-0.33,0.121-0.685,0.318-1.043,0.578l-11.511,7.867l-11.321-7.859
		c-0.371-0.268-0.727-0.465-1.055-0.586c-0.348-0.129-0.754-0.191-1.243-0.191c-2.575,0-2.96,1.455-2.96,2.322
		c0,0.32,0.096,0.672,0.281,1.041c0.192,0.389,0.546,0.75,1.073,1.1l10.378,7.191l-11.066,7.566
		c-0.492,0.352-0.823,0.688-1.012,1.029c-0.193,0.346-0.291,0.95-0.291,1.28c0,0.867,0.373,2.584,2.843,2.584h0.001l0.145-0.26
		c0.701,0,1.402-0.378,2.074-0.858l11.83-8.115l11.572,7.946c0.389,0.316,0.787,0.515,1.186,0.622
		c0.373,0.104,0.77,0.147,1.18,0.147c2.575,0,2.959-1.457,2.959-2.324c0-0.334-0.104-0.68-0.318-1.051
		c-0.201-0.348-0.532-0.7-1.036-1.097l-10.694-7.374l10.738-7.332C488.911,274.91,489.261,274.537,489.407,274.164z
		 M458.843,293.968c0,0,0.001,0,0.002,0v0.01L458.843,293.968z"/>
	<path fill="#303030" d="M526.022,260.867c-2.575,0-3.022,1.512-3.022,2.414V272h-14.954c-8.129,0-12.046,1.718-12.046,6.855v7.697
		c0,5.105,3.917,8.448,12.046,8.448h9.199c8.128,0,11.755-3.343,11.755-8.448v-23.271C529,262.378,528.558,260.867,526.022,260.867z
		 M501,278.81c0-1.965,2.769-1.81,6.909-1.81H523v9.597c0,1.965-1.478,3.403-5.618,3.403h-9.473c-4.141,0-6.909-1.438-6.909-3.403
		V278.81z"/>
	<path fill="#303030" d="M560.69,272h-13.161c-6.919,0-10.529,1.458-10.529,6.082v8.925c0,4.805,4.008,7.993,11.713,7.993h6.74
		c2.417,0,2.777-1.15,2.777-2s-0.36-2-2.777-2h-6.74c-3.868,0-5.713-2.226-5.713-4.038V286h25.296c2.258,0,2.704-2.657,2.704-3.456
		v-5.101C571,273.244,567.459,272,560.69,272z M565,278.355V281h-22v-2.645c0-0.654-0.117-1.355,4.803-1.355h12.523
		C565.109,277,565,277.701,565,278.355z"/>
	<path fill="#303030" d="M611.992,271.484c-0.541-0.396-1.238-0.598-2.072-0.598c-0.594,0-1.093,0.104-1.484,0.309
		c-0.378,0.197-0.729,0.492-1.04,0.875l-13.276,16.017l-13.141-16.015c-0.315-0.385-0.666-0.68-1.044-0.879
		c-0.391-0.203-0.89-0.307-1.483-0.307c-0.867,0-1.583,0.211-2.126,0.627c-0.583,0.449-0.879,1.064-0.879,1.832
		c0,0.242,0.05,0.494,0.147,0.746c0.098,0.258,0.285,0.541,0.562,0.85l15.203,18.207c0.42,0.525,0.832,0.871,1.262,1.059
		c0.411,0.178,0.899,0.268,1.452,0.268c0.539,0,1.038-0.078,1.484-0.232c0.488-0.17,0.949-0.525,1.404-1.086l15.2-18.203
		c0.285-0.32,0.472-0.602,0.571-0.861c0.098-0.256,0.147-0.521,0.147-0.793C612.88,272.539,612.573,271.912,611.992,271.484z"/>
	<path fill="#303030" d="M633.147,278h-15.074c-2.377,0-2.731,1.598-2.731,2.432c0,0.883,0.354,2.568,2.731,2.568h15.074
		c2.416,0,2.776-1.686,2.776-2.568C635.924,279.598,635.563,278,633.147,278z"/>
	<path fill="#018d36" d="M663.386,271.173h-15.15v-7.893c0-0.902-0.465-2.414-3-2.414s-3,1.512-3,2.414v23.271
		c0,5.105,3.868,7.621,11.996,7.621h9.154c8.128,0,11.85-2.516,11.85-7.621v-7.697C675.235,273.718,671.514,271.173,663.386,271.173
		z M663.522,289.173h-9.473c-4.141,0-5.814-0.611-5.814-2.576v-10.423h15.287c4.14,0,6.713,0.672,6.713,2.637v7.787
		C670.235,288.562,667.662,289.173,663.522,289.173z"/>
	<path fill="#f8b133" d="M698.862,271.173h-3.507c-8.128,0-12.12,2.545-12.12,7.682v13.207c0,0.9,0.465,2.412,3,2.412
		s3-1.512,3-2.412v-13.298c0-1.934,1.798-2.59,5.938-2.59h3.688c2.456,0,2.822-1.617,2.822-2.5
		C701.685,272.789,701.318,271.173,698.862,271.173z"/>
</g>
<g>
	<g>
		<g>
			<path fill-rule="evenodd" clip-rule="evenodd" fill="#303030" d="M275.153,290.885c-0.259-1.416-0.559-2.608-0.671-3.818
				c-0.082-0.894-0.481-1.308-1.271-1.647c-1.518-0.653-3.052-1.323-4.447-2.195c-1.559-0.975-2.831-2.313-3.873-4.01
				c4.226-2.928,8.739-5.029,13.648-6.296c4.904-1.265,9.885-1.589,15.134-1.075c-0.491-1.711-0.921-3.211-1.368-4.767
				c-10.745-0.656-20.479,2.084-29.383,7.882c-0.123-0.162-0.188-0.224-0.223-0.299c-0.061-0.131-0.115-0.269-0.147-0.41
				c-1.215-5.087-0.462-9.808,2.997-13.82c4.265-4.945,9.646-8.145,16.049-9.569c0.559-0.125,1.114-0.278,1.765-0.441
				c-0.237-1.538-0.455-2.958-0.688-4.466c-8.949,1.661-16.161,5.939-21.828,12.826c-3.202-3.09-8.27-2.026-9.625,2.637
				c0.453,4.731,1.82,6.197,6.192,6.563c-0.431,5.472,1.041,10.406,4.444,14.71C265.245,286.97,269.673,289.605,275.153,290.885z
				 M254.144,285.045c1.864,8.962,5.701,16.507,13.04,22.026c-1.645,2.189-1.971,4.474-0.449,6.78
				c1.171,1.776,2.929,2.621,5.052,2.328c3.307-0.457,4.74-2.648,4.929-5.856c5.463,0.22,10.322-1.251,14.532-4.618
				c4.191-3.352,6.763-7.673,7.695-13.11c-1.752,0.379-3.309,0.716-4.798,1.036c-2.237,5.146-4.532,8.258-6.782,9.137
				c-5.809-8.623-8.379-18.088-7.28-28.706c-1.695,0.486-3.215,0.923-4.793,1.377c-0.675,10.779,2.144,20.513,7.959,29.479
				c-0.382,0.136-0.594,0.234-0.818,0.287c-5.092,1.209-9.809,0.438-13.801-3.053c-5.005-4.38-8.221-9.886-9.648-16.408
				c-0.083-0.384-0.241-0.752-0.415-1.293C257.108,284.646,255.737,284.831,254.144,285.045z M311.179,280.3
				c-1.498,0.899-2.837,1.774-4.24,2.532c-7.641,4.119-15.804,5.715-24.654,4.826c0.484,1.706,0.917,3.229,1.354,4.772
				c10.73,0.623,20.505-1.981,29.478-7.953c0.152,0.45,0.297,0.765,0.365,1.093c1.128,5.317,0.162,10.132-3.637,14.149
				c-4.39,4.642-9.707,7.717-15.99,9.054c-0.334,0.071-0.649,0.218-1.034,0.352c-0.172,1.517,0.254,2.904,0.495,4.463
				c9.092-1.902,16.801-5.843,22.31-13.513c2.271,1.568,4.59,1.808,6.846,0.133c1.805-1.341,2.519-3.253,2.015-5.431
				c-0.688-2.984-2.806-4.287-5.877-4.354c-0.012-5.301-1.516-10.066-4.878-14.146c-3.348-4.062-7.601-6.585-12.892-7.485
				c0.325,1.701,0.62,3.241,0.931,4.867C305.485,274.843,308.733,276.778,311.179,280.3z M321.76,274.472
				c-1.467-8.478-5.481-15.322-11.741-20.971c2.071-2.081,2.675-4.442,1.25-7.031c-1.042-1.896-2.811-2.87-4.963-2.684
				c-3.254,0.282-4.871,2.326-5.228,5.568c-5.737-0.777-10.925,0.488-15.521,3.904c-4.579,3.404-7.375,7.957-8.694,13.651
				c1.281-0.228,2.333-0.479,3.399-0.586c1.084-0.11,1.721-0.561,2.086-1.64c1.017-3.005,2.786-5.511,5.309-7.459
				c0.265-0.206,0.564-0.369,0.903-0.587c5.548,8.141,8.117,17.013,7.521,26.91c1.651-0.543,3.135-1.027,4.654-1.524
				c0.239-10.042-2.481-19.111-8.052-27.449c2.479-0.816,4.863-0.961,7.291-0.61c4.162,0.603,7.33,2.861,9.993,5.978
				c3.54,4.143,6.025,8.809,7.089,14.183c0.115,0.583,0.43,0.904,1.025,0.835C319.262,274.821,320.439,274.649,321.76,274.472z"/>
		</g>
		<g>
			<path fill-rule="evenodd" clip-rule="evenodd" fill="#f8b133" d="M275.153,290.885c-5.48-1.279-9.908-3.915-13.292-8.196
				c-3.404-4.305-4.875-9.238-4.444-14.71c-4.372-0.366-5.74-1.832-6.192-6.563c1.355-4.664,6.423-5.728,9.625-2.637
				c5.667-6.887,12.878-11.166,21.828-12.826c0.232,1.508,0.45,2.929,0.688,4.466c-0.651,0.163-1.206,0.316-1.765,0.441
				c-6.403,1.425-11.784,4.624-16.049,9.569c-3.459,4.013-4.212,8.733-2.997,13.82c0.033,0.142,0.087,0.279,0.147,0.41
				c0.034,0.075,0.1,0.137,0.223,0.299c8.904-5.797,18.639-8.538,29.383-7.882c0.447,1.555,0.876,3.055,1.368,4.767
				c-5.25-0.515-10.23-0.19-15.134,1.075c-4.91,1.267-9.423,3.369-13.648,6.296c1.042,1.697,2.314,3.035,3.873,4.01
				c1.396,0.872,2.929,1.542,4.447,2.195c0.789,0.34,1.188,0.754,1.271,1.647C274.594,288.276,274.894,289.469,275.153,290.885z"/>
		</g>
		<g>
			<path fill-rule="evenodd" clip-rule="evenodd" fill="#018d36" d="M254.144,285.045c1.594-0.214,2.964-0.398,4.423-0.595
				c0.174,0.541,0.332,0.909,0.415,1.293c1.427,6.522,4.643,12.028,9.648,16.408c3.992,3.49,8.708,4.262,13.801,3.053
				c0.224-0.053,0.436-0.151,0.818-0.287c-5.815-8.966-8.635-18.699-7.959-29.479c1.579-0.454,3.099-0.891,4.793-1.377
				c-1.099,10.618,1.472,20.083,7.28,28.706c2.25-0.879,4.545-3.991,6.782-9.137c1.489-0.32,3.045-0.657,4.798-1.036
				c-0.932,5.438-3.504,9.759-7.695,13.11c-4.21,3.367-9.068,4.838-14.532,4.618c-0.189,3.208-1.622,5.399-4.929,5.856
				c-2.123,0.293-3.881-0.552-5.052-2.328c-1.521-2.307-1.196-4.591,0.449-6.78C259.844,301.552,256.007,294.007,254.144,285.045z"
				/>
		</g>
		<g>
			<path fill-rule="evenodd" clip-rule="evenodd" fill="#f8b133" d="M311.179,280.3c-2.446-3.521-5.693-5.457-9.409-6.641
				c-0.311-1.625-0.605-3.166-0.931-4.867c5.291,0.899,9.543,3.423,12.892,7.485c3.362,4.08,4.866,8.846,4.878,14.146
				c3.072,0.066,5.19,1.369,5.877,4.354c0.503,2.178-0.21,4.09-2.015,5.431c-2.256,1.675-4.575,1.436-6.846-0.133
				c-5.508,7.67-13.217,11.61-22.31,13.513c-0.241-1.559-0.667-2.946-0.495-4.463c0.385-0.134,0.7-0.28,1.034-0.352
				c6.283-1.337,11.6-4.412,15.99-9.054c3.799-4.018,4.766-8.832,3.637-14.149c-0.068-0.328-0.213-0.643-0.365-1.093
				c-8.973,5.972-18.748,8.576-29.478,7.953c-0.437-1.543-0.869-3.066-1.354-4.772c8.851,0.889,17.013-0.707,24.654-4.826
				C308.342,282.074,309.681,281.199,311.179,280.3z"/>
		</g>
		<g>
			<path fill-rule="evenodd" clip-rule="evenodd" fill="#018d36" d="M321.76,274.472c-1.321,0.178-2.499,0.35-3.68,0.488
				c-0.596,0.069-0.91-0.252-1.025-0.835c-1.064-5.374-3.549-10.04-7.089-14.183c-2.663-3.117-5.832-5.375-9.993-5.978
				c-2.428-0.351-4.813-0.206-7.291,0.61c5.571,8.338,8.291,17.407,8.052,27.449c-1.519,0.497-3.003,0.981-4.654,1.524
				c0.596-9.897-1.973-18.769-7.521-26.91c-0.339,0.218-0.638,0.381-0.903,0.587c-2.522,1.949-4.292,4.454-5.309,7.459
				c-0.365,1.08-1.002,1.53-2.086,1.64c-1.066,0.106-2.118,0.358-3.399,0.586c1.319-5.694,4.115-10.247,8.694-13.651
				c4.597-3.417,9.785-4.682,15.521-3.904c0.357-3.242,1.974-5.286,5.228-5.568c2.153-0.187,3.921,0.788,4.963,2.684
				c1.425,2.589,0.821,4.95-1.25,7.031C316.279,259.149,320.293,265.994,321.76,274.472z"/>
		</g>
	</g>
</g>
</svg>
