<?xml version="1.0" encoding="utf-8"?>
<!-- Generator: Adobe Illustrator 16.0.0, SVG Export Plug-In . SVG Version: 6.00 Build 0)  -->
<!DOCTYPE svg PUBLIC "-//W3C//DTD SVG 1.1//EN" "http://www.w3.org/Graphics/SVG/1.1/DTD/svg11.dtd">
<svg version="1.1" id="Layer_1" xmlns="http://www.w3.org/2000/svg" xmlns:xlink="http://www.w3.org/1999/xlink" x="0px" y="0px"
	 width="960px" height="560px" viewBox="0 0 960 560" enable-background="new 0 0 960 560" xml:space="preserve">
<g>
	<polygon fill="#303030" points="493.883,296.285 493.885,296.295 493.885,296.285 	"/>
	<path fill="#303030" d="M386,263.184c-2.535,0-3,1.512-3,2.414v28.781c0,0.9,0.465,2.412,3,2.412s3-1.512,3-2.412v-28.781
		C389,264.695,388.535,263.184,386,263.184z"/>
	<path fill="#303030" d="M399.86,265.598c-2.733,0-3.142,1.684-3.142,2.686c0,1.004,0.408,2.688,3.142,2.688
		s3.142-1.684,3.142-2.688C403.001,267.281,402.593,265.598,399.86,265.598z"/>
	<path fill="#303030" d="M399.5,273.203c-2.535,0-2.5,1.512-2.5,2.412v18.764c0,0.9-0.035,2.412,2.5,2.412s2.5-1.512,2.5-2.412
		v-18.764C402,274.715,402.035,273.203,399.5,273.203z"/>
	<path fill="#303030" d="M431.465,274h-8.79c-8.128,0-12.675,2.035-12.675,7.172v13.207c0,0.9,0.465,2.412,3,2.412s3-1.512,3-2.412
		v-13.207c0-1.994,2.353-2.172,6.493-2.172h9.108c4.171,0,6.398,0.178,6.398,2.172v13.207c0,0.9-0.035,2.412,2.5,2.412
		s2.5-1.512,2.5-2.412v-13.207C443,276.035,439.593,274,431.465,274z"/>
	<path fill="#303030" d="M480.977,273.203c-2.535,0-2.977,1.512-2.977,2.412v13.299c0,1.965-1.864,3.086-6.004,3.086h-8.653
		c-4.141,0-6.343-1.121-6.343-3.086v-13.299c0-0.9-0.465-2.412-3-2.412s-3,1.512-3,2.412v13.254c0,5.105,4.396,8.131,12.525,8.131
		h8.334c8.128,0,12.141-3.025,12.141-8.131v-13.254C484,274.715,483.553,273.203,480.977,273.203z"/>
	<path fill="#303030" d="M524.447,276.48c0.121-0.313,0.197-0.586,0.238-0.91c0-0.883-0.372-2.367-2.867-2.367
		c-0.424,0-0.812,0.064-1.152,0.191c-0.33,0.121-0.685,0.318-1.043,0.578l-11.511,7.867l-11.321-7.859
		c-0.371-0.268-0.727-0.465-1.055-0.586c-0.348-0.129-0.754-0.191-1.243-0.191c-2.575,0-2.96,1.455-2.96,2.322
		c0,0.32,0.096,0.672,0.281,1.041c0.192,0.389,0.546,0.75,1.073,1.1l10.378,7.191l-11.066,7.566
		c-0.492,0.352-0.823,0.688-1.012,1.029c-0.193,0.346-0.291,0.7-0.291,1.03c0,0.867,0.373,2.333,2.843,2.333h0.001l0.145-0.009
		c0.701,0,1.402-0.253,2.074-0.733l11.83-8.053l11.572,7.978c0.389,0.316,0.787,0.53,1.186,0.638c0.373,0.104,0.77,0.155,1.18,0.155
		c2.575,0,2.959-1.453,2.959-2.32c0-0.334-0.104-0.678-0.318-1.049c-0.201-0.348-0.532-0.699-1.036-1.096l-10.694-7.374
		l10.738-7.332C523.951,277.227,524.301,276.854,524.447,276.48z M493.883,296.285c0,0,0.001,0,0.002,0v0.01L493.883,296.285z"/>
	<path fill="#303030" d="M561.022,263.184c-2.575,0-3.022,1.512-3.022,2.414V274h-14.914c-8.129,0-12.086,2.035-12.086,7.172v7.697
		c0,5.105,3.957,8.131,12.086,8.131h9.199c8.128,0,11.715-3.025,11.715-8.131v-23.271C564,264.695,563.558,263.184,561.022,263.184z
		 M536,281.127c0-1.965,2.809-2.127,6.949-2.127H558v9.914c0,1.965-1.438,3.086-5.578,3.086h-9.473
		c-4.141,0-6.949-1.121-6.949-3.086V281.127z"/>
	<path fill="#303030" d="M595.73,274h-13.161c-6.919,0-10.569,1.775-10.569,6.398v8.926c0,4.805,4.048,7.676,11.753,7.676h6.74
		c2.417,0,2.777-1.15,2.777-2s-0.36-2-2.777-2h-6.74c-3.868,0-5.753-1.908-5.753-3.721V288h25.336c2.258,0,2.664-2.34,2.664-3.139
		v-5.102C606,275.561,602.499,274,595.73,274z M600,280.672V283h-22v-2.328c0-0.654-0.077-1.672,4.843-1.672h12.523
		C600.149,279,600,280.018,600,280.672z"/>
	<path fill="#303030" d="M647.032,273.801c-0.541-0.396-1.238-0.598-2.072-0.598c-0.594,0-1.093,0.104-1.484,0.309
		c-0.378,0.197-0.729,0.492-1.04,0.875l-13.276,16.018l-13.141-16.016c-0.315-0.385-0.666-0.68-1.044-0.879
		c-0.391-0.203-0.89-0.307-1.483-0.307c-0.867,0-1.583,0.211-2.126,0.627c-0.583,0.449-0.879,1.064-0.879,1.832
		c0,0.242,0.05,0.494,0.147,0.746c0.098,0.258,0.285,0.541,0.562,0.85l15.203,18.207c0.42,0.525,0.832,0.871,1.262,1.059
		c0.411,0.178,0.899,0.268,1.452,0.268c0.539,0,1.038-0.078,1.484-0.232c0.488-0.17,0.949-0.525,1.404-1.086l15.2-18.203
		c0.285-0.32,0.472-0.602,0.571-0.861c0.098-0.256,0.147-0.521,0.147-0.793C647.92,274.855,647.613,274.229,647.032,273.801z"/>
	<path fill="#303030" d="M668.188,280h-15.074c-2.377,0-2.731,1.598-2.731,2.432c0,0.883,0.354,2.568,2.731,2.568h15.074
		c2.416,0,2.776-1.686,2.776-2.568C670.964,281.598,670.604,280,668.188,280z"/>
	<path fill="#018d36" d="M698.426,273.49h-15.15v-7.893c0-0.902-0.465-2.414-3-2.414s-3,1.512-3,2.414v23.271
		c0,5.105,3.868,7.621,11.996,7.621h9.154c8.128,0,11.85-2.516,11.85-7.621v-7.697C710.275,276.035,706.554,273.49,698.426,273.49z
		 M698.563,291.49h-9.473c-4.141,0-5.814-0.611-5.814-2.576V278.49h15.287c4.14,0,6.713,0.672,6.713,2.637v7.787
		C705.275,290.879,702.702,291.49,698.563,291.49z"/>
	<path fill="#f8b133" d="M733.902,273.49h-3.507c-8.128,0-12.12,2.545-12.12,7.682v13.207c0,0.9,0.465,2.412,3,2.412
		s3-1.512,3-2.412V281.08c0-1.934,1.798-2.59,5.938-2.59h3.688c2.456,0,2.822-1.617,2.822-2.5
		C736.725,275.105,736.358,273.49,733.902,273.49z"/>
</g>
<g>
	<g>
		<g>
			<path fill-rule="evenodd" clip-rule="evenodd" fill="#303030" d="M266.083,299.028c-0.452-2.476-0.978-4.56-1.172-6.676
				c-0.143-1.562-0.84-2.284-2.22-2.878c-2.654-1.143-5.335-2.313-7.776-3.838c-2.723-1.704-4.948-4.045-6.769-7.01
				c7.385-5.119,15.274-8.791,23.856-11.006c8.575-2.211,17.28-2.778,26.457-1.879c-0.859-2.993-1.611-5.613-2.392-8.332
				c-18.781-1.147-35.799,3.643-51.361,13.777c-0.217-0.284-0.33-0.391-0.389-0.521c-0.105-0.23-0.201-0.472-0.26-0.719
				c-2.123-8.893-0.808-17.143,5.241-24.156c7.455-8.646,16.86-14.237,28.052-16.728c0.979-0.22,1.947-0.486,3.085-0.772
				c-0.413-2.687-0.795-5.17-1.201-7.807c-15.643,2.902-28.25,10.381-38.154,22.42c-5.597-5.402-14.457-3.541-16.824,4.611
				c0.789,8.269,3.181,10.832,10.823,11.471c-0.754,9.565,1.818,18.188,7.77,25.715
				C248.764,292.184,256.502,296.793,266.083,299.028z M229.36,288.82c3.258,15.664,9.964,28.854,22.792,38.503
				c-2.876,3.826-3.445,7.818-0.785,11.851c2.048,3.104,5.121,4.581,8.83,4.068c5.782-0.797,8.286-4.629,8.617-10.234
				c9.549,0.382,18.042-2.188,25.402-8.075c7.325-5.857,11.822-13.41,13.449-22.914c-3.062,0.661-5.784,1.25-8.387,1.812
				c-3.908,8.993-7.919,14.432-11.853,15.968c-10.152-15.072-14.647-31.617-12.725-50.179c-2.963,0.852-5.62,1.615-8.38,2.409
				c-1.181,18.843,3.748,35.857,13.915,51.528c-0.668,0.238-1.04,0.41-1.431,0.503c-8.901,2.112-17.147,0.766-24.124-5.337
				c-8.749-7.655-14.371-17.278-16.865-28.681c-0.146-0.67-0.419-1.314-0.727-2.261C234.54,288.124,232.145,288.445,229.36,288.82z
				 M329.055,280.524c-2.618,1.572-4.958,3.105-7.41,4.428c-13.356,7.201-27.625,9.988-43.095,8.436
				c0.846,2.983,1.6,5.646,2.364,8.342c18.756,1.091,35.843-3.463,51.528-13.901c0.267,0.787,0.518,1.336,0.639,1.911
				c1.971,9.294,0.282,17.71-6.359,24.731c-7.675,8.114-16.968,13.491-27.952,15.826c-0.581,0.124-1.133,0.382-1.805,0.615
				c-0.301,2.652,0.443,5.077,0.865,7.802c15.893-3.327,29.367-10.213,38.997-23.621c3.969,2.742,8.022,3.16,11.967,0.232
				c3.155-2.343,4.401-5.686,3.523-9.493c-1.203-5.217-4.904-7.492-10.275-7.609c-0.022-9.265-2.647-17.596-8.525-24.729
				c-5.852-7.101-13.287-11.512-22.536-13.084c0.569,2.973,1.084,5.666,1.628,8.508
				C319.104,270.986,324.781,274.369,329.055,280.524z M347.553,270.337c-2.566-14.819-9.58-26.784-20.523-36.658
				c3.619-3.638,4.676-7.766,2.186-12.291c-1.822-3.312-4.913-5.017-8.676-4.69c-5.688,0.493-8.515,4.066-9.139,9.732
				c-10.029-1.358-19.097,0.853-27.133,6.825c-8.004,5.951-12.893,13.91-15.197,23.861c2.238-0.397,4.077-0.837,5.939-1.023
				c1.898-0.191,3.01-0.98,3.649-2.867c1.777-5.252,4.871-9.633,9.279-13.039c0.465-0.359,0.988-0.645,1.58-1.025
				c9.698,14.23,14.187,29.738,13.146,47.04c2.887-0.947,5.479-1.795,8.136-2.665c0.418-17.554-4.337-33.408-14.075-47.982
				c4.333-1.426,8.499-1.68,12.743-1.066c7.276,1.053,12.813,5.002,17.47,10.449c6.188,7.242,10.53,15.397,12.392,24.793
				c0.201,1.019,0.75,1.579,1.79,1.459C343.184,270.949,345.244,270.647,347.553,270.337z"/>
		</g>
		<g>
			<path fill-rule="evenodd" clip-rule="evenodd" fill="#f8b133" d="M266.083,299.028c-9.58-2.235-17.318-6.845-23.233-14.327
				c-5.952-7.527-8.523-16.15-7.77-25.715c-7.642-0.639-10.034-3.202-10.823-11.471c2.367-8.152,11.228-10.014,16.824-4.611
				c9.904-12.039,22.511-19.518,38.154-22.42c0.406,2.637,0.788,5.12,1.201,7.807c-1.138,0.286-2.106,0.553-3.085,0.772
				c-11.192,2.49-20.597,8.081-28.052,16.728c-6.049,7.014-7.364,15.264-5.241,24.156c0.059,0.247,0.155,0.488,0.26,0.719
				c0.059,0.131,0.172,0.237,0.389,0.521c15.563-10.135,32.58-14.925,51.361-13.777c0.78,2.719,1.532,5.339,2.392,8.332
				c-9.177-0.899-17.882-0.332-26.457,1.879c-8.583,2.215-16.471,5.887-23.856,11.006c1.821,2.965,4.045,5.306,6.769,7.01
				c2.44,1.525,5.122,2.695,7.776,3.838c1.379,0.594,2.077,1.316,2.22,2.878C265.104,294.469,265.63,296.553,266.083,299.028z"/>
		</g>
		<g>
			<path fill-rule="evenodd" clip-rule="evenodd" fill="#018d36" d="M229.36,288.82c2.785-0.375,5.18-0.696,7.728-1.04
				c0.308,0.946,0.581,1.591,0.727,2.261c2.494,11.402,8.116,21.025,16.865,28.681c6.977,6.103,15.222,7.449,24.124,5.337
				c0.392-0.093,0.763-0.265,1.431-0.503c-10.167-15.671-15.096-32.685-13.915-51.528c2.761-0.794,5.417-1.558,8.38-2.409
				c-1.922,18.562,2.573,35.107,12.725,50.179c3.934-1.536,7.944-6.975,11.853-15.968c2.603-0.562,5.325-1.15,8.387-1.812
				c-1.627,9.504-6.124,17.057-13.449,22.914c-7.36,5.887-15.854,8.457-25.402,8.075c-0.331,5.605-2.834,9.438-8.617,10.234
				c-3.708,0.513-6.782-0.964-8.83-4.068c-2.66-4.032-2.091-8.024,0.785-11.851C239.324,317.674,232.618,304.484,229.36,288.82z"/>
		</g>
		<g>
			<path fill-rule="evenodd" clip-rule="evenodd" fill="#f8b133" d="M329.055,280.524c-4.274-6.155-9.951-9.538-16.446-11.606
				c-0.544-2.842-1.059-5.535-1.628-8.508c9.249,1.572,16.685,5.983,22.536,13.084c5.878,7.133,8.503,15.464,8.525,24.729
				c5.371,0.117,9.072,2.393,10.275,7.609c0.878,3.808-0.368,7.15-3.523,9.493c-3.944,2.928-7.998,2.51-11.967-0.232
				c-9.63,13.408-23.104,20.294-38.997,23.621c-0.422-2.725-1.166-5.149-0.865-7.802c0.672-0.233,1.224-0.491,1.805-0.615
				c10.984-2.335,20.277-7.712,27.952-15.826c6.642-7.021,8.33-15.438,6.359-24.731c-0.121-0.575-0.372-1.124-0.639-1.911
				c-15.686,10.438-32.772,14.992-51.528,13.901c-0.764-2.696-1.518-5.358-2.364-8.342c15.47,1.553,29.738-1.234,43.095-8.436
				C324.097,283.629,326.437,282.096,329.055,280.524z"/>
		</g>
		<g>
			<path fill-rule="evenodd" clip-rule="evenodd" fill="#018d36" d="M347.553,270.337c-2.31,0.31-4.369,0.611-6.435,0.852
				c-1.04,0.12-1.589-0.44-1.79-1.459c-1.861-9.396-6.204-17.551-12.392-24.793c-4.656-5.447-10.193-9.396-17.47-10.449
				c-4.244-0.613-8.41-0.359-12.743,1.066c9.738,14.574,14.493,30.428,14.075,47.982c-2.656,0.87-5.249,1.718-8.136,2.665
				c1.041-17.301-3.447-32.809-13.146-47.04c-0.592,0.381-1.115,0.666-1.58,1.025c-4.408,3.406-7.502,7.787-9.279,13.039
				c-0.639,1.887-1.75,2.676-3.649,2.867c-1.862,0.187-3.701,0.626-5.939,1.023c2.304-9.951,7.193-17.91,15.197-23.861
				c8.036-5.973,17.104-8.184,27.133-6.825c0.624-5.666,3.451-9.239,9.139-9.732c3.763-0.326,6.854,1.379,8.676,4.69
				c2.49,4.525,1.434,8.653-2.186,12.291C337.973,243.553,344.987,255.518,347.553,270.337z"/>
		</g>
	</g>
</g>
</svg>
