<?xml version="1.0" encoding="utf-8"?>
<!-- Generator: Adobe Illustrator 16.0.0, SVG Export Plug-In . SVG Version: 6.00 Build 0)  -->
<!DOCTYPE svg PUBLIC "-//W3C//DTD SVG 1.1//EN" "http://www.w3.org/Graphics/SVG/1.1/DTD/svg11.dtd">
<svg version="1.1" id="Layer_1" xmlns="http://www.w3.org/2000/svg" xmlns:xlink="http://www.w3.org/1999/xlink" x="0px" y="0px"
	 width="960px" height="560px" viewBox="0 0 960 560" enable-background="new 0 0 960 560" xml:space="preserve">
<g>
	<g>
		<polygon fill="#303030" points="414.02,384.789 414.022,384.799 414.022,384.789 		"/>
		<path fill="#303030" d="M306,351.688c-2.535,0-3,1.512-3,2.414v28.781c0,0.9,0.465,2.412,3,2.412s3-1.512,3-2.412v-28.781
			C309,353.199,308.535,351.688,306,351.688z"/>
		<path fill="#303030" d="M319.998,354.102c-2.733,0-3.142,1.684-3.142,2.686c0,1.004,0.408,2.688,3.142,2.688
			s3.142-1.684,3.142-2.688C323.139,355.785,322.731,354.102,319.998,354.102z"/>
		<path fill="#303030" d="M319.5,361.707c-2.535,0-2.5,1.512-2.5,2.412v18.764c0,0.9-0.035,2.412,2.5,2.412s2.5-1.512,2.5-2.412
			v-18.764C322,363.219,322.035,361.707,319.5,361.707z"/>
		<path fill="#303030" d="M351.603,363h-8.79c-8.128,0-12.813,1.539-12.813,6.676v13.207c0,0.9,0.465,2.412,3,2.412s3-1.512,3-2.412
			v-13.207c0-1.994,2.49-1.676,6.631-1.676h9.108c4.171,0,6.261-0.318,6.261,1.676v13.207c0,0.9-0.035,2.412,2.5,2.412
			s2.5-1.512,2.5-2.412v-13.207C363,364.539,359.731,363,351.603,363z"/>
		<path fill="#303030" d="M400.977,361.707c-2.535,0-2.977,1.512-2.977,2.412v13.299c0,1.965-1.726,3.582-5.867,3.582h-8.653
			c-4.141,0-6.48-1.617-6.48-3.582v-13.299c0-0.9-0.465-2.412-3-2.412s-3,1.512-3,2.412v13.254c0,5.105,4.534,8.627,12.663,8.627
			h8.334c8.128,0,12.003-3.521,12.003-8.627v-13.254C404,363.219,403.552,361.707,400.977,361.707z"/>
		<path fill="#303030" d="M444.585,364.984c0.121-0.313,0.197-0.586,0.239-0.91c0-0.883-0.373-2.367-2.868-2.367
			c-0.423,0-0.811,0.064-1.152,0.191c-0.33,0.121-0.685,0.318-1.043,0.578l-11.511,7.867l-11.322-7.859
			c-0.371-0.268-0.726-0.465-1.054-0.586c-0.347-0.129-0.754-0.191-1.243-0.191c-2.575,0-2.959,1.455-2.959,2.322
			c0,0.32,0.095,0.672,0.28,1.041c0.193,0.389,0.546,0.75,1.074,1.1l10.378,7.191l-11.067,7.566
			c-0.492,0.352-0.823,0.688-1.012,1.029c-0.193,0.346-0.291,1.04-0.291,1.37c0,0.867,0.373,2.673,2.843,2.673c0,0,0.001,0,0.001,0
			l0.144-0.349c0.702,0,1.403-0.423,2.074-0.903l11.831-8.137l11.572,7.935c0.388,0.316,0.788,0.509,1.186,0.616
			c0.373,0.104,0.77,0.145,1.18,0.145c2.575,0,2.959-1.459,2.959-2.326c0-0.334-0.104-0.68-0.318-1.051
			c-0.202-0.348-0.533-0.701-1.037-1.098l-10.694-7.375l10.738-7.332C444.088,365.73,444.438,365.357,444.585,364.984z
			 M414.02,384.789h0.002v0.01L414.02,384.789z"/>
		<path fill="#303030" d="M481.022,351.688c-2.575,0-3.022,1.512-3.022,2.414V363h-14.776c-8.129,0-12.224,1.539-12.224,6.676v7.697
			c0,5.105,4.095,8.627,12.224,8.627h9.199c8.128,0,11.577-3.521,11.577-8.627v-23.271C484,353.199,483.558,351.688,481.022,351.688
			z M456,369.631c0-1.965,2.946-1.631,7.087-1.631H478v9.418c0,1.965-1.3,3.582-5.44,3.582h-9.473c-4.141,0-7.087-1.617-7.087-3.582
			V369.631z"/>
		<path fill="#303030" d="M515.868,363h-13.161c-6.919,0-10.707,1.279-10.707,5.902v8.926c0,4.805,4.186,8.172,11.891,8.172h6.74
			c2.417,0,2.777-1.15,2.777-2s-0.36-2-2.777-2h-6.74c-3.868,0-5.891-2.404-5.891-4.217V377h25.474c2.258,0,2.526-2.836,2.526-3.635
			v-5.102C526,364.064,522.637,363,515.868,363z M520,369.176V372h-22v-2.824c0-0.654,0.061-1.176,4.98-1.176h12.523
			C520.287,368,520,368.521,520,369.176z"/>
		<path fill="#303030" d="M567.17,362.305c-0.541-0.396-1.238-0.598-2.072-0.598c-0.594,0-1.093,0.104-1.484,0.309
			c-0.378,0.197-0.729,0.492-1.04,0.875l-13.276,16.018l-13.141-16.016c-0.315-0.385-0.666-0.68-1.044-0.879
			c-0.391-0.203-0.89-0.307-1.483-0.307c-0.867,0-1.583,0.211-2.126,0.627c-0.583,0.449-0.879,1.064-0.879,1.832
			c0,0.242,0.05,0.494,0.147,0.746c0.098,0.258,0.285,0.541,0.562,0.85l15.203,18.207c0.42,0.525,0.832,0.871,1.262,1.059
			c0.411,0.178,0.899,0.268,1.452,0.268c0.539,0,1.038-0.078,1.484-0.232c0.488-0.17,0.949-0.525,1.404-1.086l15.2-18.203
			c0.285-0.32,0.472-0.602,0.571-0.861c0.098-0.256,0.147-0.521,0.147-0.793C568.058,363.359,567.751,362.732,567.17,362.305z"/>
		<path fill="#303030" d="M588.325,369h-15.074c-2.377,0-2.731,1.598-2.731,2.432c0,0.883,0.354,2.568,2.731,2.568h15.074
			c2.416,0,2.776-1.686,2.776-2.568C591.102,370.598,590.741,369,588.325,369z"/>
		<path fill="#018d36" d="M618.563,361.994h-15.15v-7.893c0-0.902-0.465-2.414-3-2.414s-3,1.512-3,2.414v23.271
			c0,5.105,3.868,7.621,11.996,7.621h9.154c8.128,0,11.85-2.516,11.85-7.621v-7.697
			C630.413,364.539,626.691,361.994,618.563,361.994z M618.7,379.994h-9.473c-4.141,0-5.814-0.611-5.814-2.576v-10.424H618.7
			c4.14,0,6.713,0.672,6.713,2.637v7.787C625.413,379.383,622.84,379.994,618.7,379.994z"/>
		<path fill="#f8b133" d="M654.04,361.994h-3.507c-8.128,0-12.12,2.545-12.12,7.682v13.207c0,0.9,0.465,2.412,3,2.412
			s3-1.512,3-2.412v-13.299c0-1.934,1.798-2.59,5.938-2.59h3.688c2.456,0,2.822-1.617,2.822-2.5
			C656.862,363.609,656.496,361.994,654.04,361.994z"/>
	</g>
	<g>
		<g>
			<g>
				<path fill-rule="evenodd" clip-rule="evenodd" fill="#303030" d="M452.388,276.805c-0.562-3.074-1.215-5.663-1.456-8.292
					c-0.177-1.939-1.043-2.837-2.757-3.574c-3.296-1.419-6.627-2.873-9.658-4.769c-3.382-2.115-6.145-5.024-8.407-8.706
					c9.173-6.358,18.971-10.919,29.63-13.67c10.651-2.746,21.464-3.451,32.862-2.334c-1.068-3.717-2.002-6.971-2.971-10.348
					c-23.328-1.425-44.465,4.524-63.795,17.113c-0.269-0.354-0.41-0.486-0.483-0.647c-0.131-0.287-0.25-0.586-0.324-0.893
					c-2.637-11.045-1.003-21.293,6.51-30.005c9.26-10.738,20.942-17.683,34.842-20.776c1.217-0.272,2.419-0.604,3.833-0.959
					c-0.514-3.337-0.987-6.421-1.492-9.697c-19.429,3.606-35.088,12.895-47.39,27.849c-6.952-6.711-17.957-4.399-20.897,5.728
					c0.98,10.27,3.951,13.454,13.443,14.247c-0.937,11.881,2.258,22.592,9.65,31.94
					C430.877,268.304,440.488,274.028,452.388,276.805z M406.775,264.126c4.047,19.456,12.376,35.838,28.309,47.823
					c-3.572,4.753-4.279,9.711-0.975,14.72c2.544,3.855,6.361,5.689,10.967,5.053c7.182-0.989,10.292-5.749,10.703-12.712
					c11.86,0.475,22.409-2.718,31.552-10.029c9.098-7.275,14.684-16.656,16.704-28.461c-3.803,0.821-7.185,1.553-10.417,2.25
					c-4.854,11.17-9.836,17.925-14.722,19.833c-12.609-18.721-18.192-39.271-15.806-62.326c-3.68,1.058-6.979,2.006-10.408,2.992
					c-1.467,23.405,4.654,44.537,17.283,64.001c-0.83,0.296-1.292,0.51-1.778,0.625c-11.056,2.624-21.297,0.951-29.963-6.629
					c-10.867-9.509-17.85-21.461-20.947-35.624c-0.182-0.833-0.521-1.634-0.903-2.808
					C413.209,263.261,410.234,263.66,406.775,264.126z M530.604,253.821c-3.252,1.952-6.158,3.856-9.204,5.5
					c-16.59,8.945-34.313,12.406-53.527,10.478c1.052,3.706,1.988,7.013,2.937,10.361c23.297,1.354,44.52-4.301,64.002-17.268
					c0.332,0.979,0.644,1.661,0.794,2.375c2.447,11.544,0.351,21.997-7.899,30.718c-9.532,10.079-21.075,16.758-34.719,19.657
					c-0.721,0.154-1.406,0.475-2.241,0.765c-0.373,3.294,0.551,6.306,1.075,9.69c19.739-4.133,36.476-12.686,48.437-29.339
					c4.93,3.405,9.965,3.925,14.864,0.288c3.919-2.91,5.467-7.062,4.376-11.791c-1.494-6.479-6.092-9.306-12.763-9.451
					c-0.028-11.508-3.288-21.855-10.589-30.715c-7.269-8.819-16.504-14.299-27.992-16.251c0.708,3.692,1.347,7.038,2.022,10.567
					C518.244,241.975,525.295,246.177,530.604,253.821z M553.58,241.169c-3.188-18.407-11.899-33.268-25.491-45.533
					c4.495-4.518,5.808-9.646,2.714-15.266c-2.263-4.114-6.103-6.231-10.775-5.826c-7.064,0.612-10.576,5.051-11.351,12.088
					c-12.458-1.688-23.72,1.058-33.701,8.478c-9.941,7.391-16.014,17.276-18.876,29.636c2.779-0.493,5.063-1.039,7.377-1.271
					c2.358-0.238,3.738-1.217,4.531-3.562c2.208-6.522,6.051-11.963,11.525-16.195c0.578-0.447,1.228-0.801,1.963-1.274
					c12.046,17.675,17.621,36.937,16.328,58.427c3.585-1.177,6.806-2.229,10.104-3.311c0.52-21.803-5.387-41.495-17.482-59.597
					c5.383-1.771,10.557-2.087,15.828-1.324c9.038,1.307,15.915,6.212,21.699,12.979c7.685,8.995,13.079,19.124,15.391,30.794
					c0.25,1.265,0.932,1.961,2.224,1.813C548.153,241.928,550.711,241.554,553.58,241.169z"/>
			</g>
			<g>
				<path fill-rule="evenodd" clip-rule="evenodd" fill="#f8b133" d="M452.388,276.805c-11.899-2.776-21.511-8.501-28.857-17.795
					c-7.393-9.349-10.587-20.059-9.65-31.94c-9.492-0.793-12.463-3.977-13.443-14.247c2.94-10.126,13.945-12.438,20.897-5.728
					c12.302-14.954,27.961-24.243,47.39-27.849c0.505,3.276,0.979,6.36,1.492,9.697c-1.414,0.355-2.616,0.687-3.833,0.959
					c-13.9,3.093-25.583,10.038-34.842,20.776c-7.513,8.712-9.147,18.96-6.51,30.005c0.074,0.306,0.192,0.605,0.324,0.893
					c0.073,0.161,0.214,0.294,0.483,0.647c19.33-12.589,40.467-18.538,63.795-17.113c0.969,3.377,1.902,6.631,2.971,10.348
					c-11.398-1.116-22.211-0.412-32.862,2.334c-10.659,2.751-20.458,7.312-29.63,13.67c2.262,3.682,5.024,6.591,8.407,8.706
					c3.031,1.896,6.362,3.349,9.658,4.769c1.714,0.737,2.58,1.635,2.757,3.574C451.172,271.142,451.826,273.73,452.388,276.805z"/>
			</g>
			<g>
				<path fill-rule="evenodd" clip-rule="evenodd" fill="#018d36" d="M406.775,264.126c3.459-0.466,6.434-0.865,9.599-1.292
					c0.382,1.174,0.721,1.975,0.903,2.808c3.098,14.163,10.08,26.115,20.947,35.624c8.666,7.58,18.907,9.253,29.963,6.629
					c0.486-0.115,0.948-0.329,1.778-0.625c-12.629-19.464-18.75-40.596-17.283-64.001c3.429-0.986,6.729-1.934,10.408-2.992
					c-2.387,23.055,3.196,43.605,15.806,62.326c4.886-1.908,9.868-8.663,14.722-19.833c3.232-0.697,6.614-1.429,10.417-2.25
					c-2.021,11.805-7.606,21.186-16.704,28.461c-9.143,7.312-19.691,10.504-31.552,10.029c-0.41,6.963-3.521,11.723-10.703,12.712
					c-4.606,0.637-8.423-1.197-10.967-5.053c-3.304-5.009-2.598-9.967,0.975-14.72C419.151,299.964,410.822,283.582,406.775,264.126
					z"/>
			</g>
			<g>
				<path fill-rule="evenodd" clip-rule="evenodd" fill="#f8b133" d="M530.604,253.821c-5.31-7.645-12.36-11.846-20.428-14.416
					c-0.676-3.53-1.314-6.875-2.022-10.567c11.488,1.952,20.724,7.432,27.992,16.251c7.301,8.86,10.561,19.208,10.589,30.715
					c6.671,0.146,11.269,2.972,12.763,9.451c1.091,4.729-0.457,8.881-4.376,11.791c-4.899,3.637-9.935,3.117-14.864-0.288
					c-11.961,16.653-28.697,25.206-48.437,29.339c-0.524-3.385-1.448-6.396-1.075-9.69c0.835-0.29,1.521-0.61,2.241-0.765
					c13.644-2.899,25.187-9.578,34.719-19.657c8.25-8.721,10.347-19.174,7.899-30.718c-0.15-0.714-0.462-1.396-0.794-2.375
					c-19.482,12.967-40.705,18.622-64.002,17.268c-0.948-3.349-1.885-6.655-2.937-10.361c19.215,1.929,36.938-1.533,53.527-10.478
					C524.446,257.678,527.353,255.773,530.604,253.821z"/>
			</g>
			<g>
				<path fill-rule="evenodd" clip-rule="evenodd" fill="#018d36" d="M553.58,241.169c-2.869,0.384-5.427,0.759-7.992,1.058
					c-1.292,0.148-1.974-0.548-2.224-1.813c-2.312-11.67-7.706-21.799-15.391-30.794c-5.784-6.767-12.661-11.672-21.699-12.979
					c-5.271-0.763-10.445-0.446-15.828,1.324c12.096,18.102,18.002,37.793,17.482,59.597c-3.299,1.081-6.52,2.134-10.104,3.311
					c1.293-21.49-4.282-40.752-16.328-58.427c-0.735,0.473-1.385,0.827-1.963,1.274c-5.475,4.231-9.317,9.672-11.525,16.195
					c-0.793,2.345-2.173,3.323-4.531,3.562c-2.313,0.232-4.598,0.778-7.377,1.271c2.862-12.36,8.935-22.246,18.876-29.636
					c9.981-7.419,21.243-10.165,33.701-8.478c0.774-7.038,4.286-11.477,11.351-12.088c4.673-0.405,8.513,1.712,10.775,5.826
					c3.094,5.62,1.781,10.748-2.714,15.266C541.681,207.901,550.393,222.762,553.58,241.169z"/>
			</g>
		</g>
	</g>
</g>
</svg>
